HIERARCHY
ROOT Hips
{
  OFFSET 0 0 0
  CHANNELS 6 Xposition Yposition Zposition Zrotation Xrotation Yrotation
  JOINT Spine
  {
    OFFSET 0 10.1816 0.1315
    CHANNELS 3 Zrotation Xrotation Yrotation
    JOINT Spine1
    {
      OFFSET 0 10.0835 -1.0008
      CHANNELS 3 Zrotation Xrotation Yrotation
      JOINT Spine2
      {
        OFFSET 0 9.1 -1.3734
        CHANNELS 3 Zrotation Xrotation Yrotation
        JOINT Neck
        {
          OFFSET 0 16.6717 -2.5162
          CHANNELS 3 Zrotation Xrotation Yrotation
          JOINT Head
          {
            OFFSET 0 9.6179 1.685
            CHANNELS 3 Zrotation Xrotation Yrotation
            End Site
            {
              OFFSET 0 17.8152 2.585
            }
          }
        }
        JOINT LeftShoulder
        {
          OFFSET 4.5704 10.946 -2.628
          CHANNELS 3 Zrotation Xrotation Yrotation
          JOINT LeftArm
          {
            OFFSET 10.5924 -0.5246 -2.2321
            CHANNELS 3 Zrotation Xrotation Yrotation
            JOINT LeftForeArm
            {
              OFFSET 27.8415 -0.0001 0
              CHANNELS 3 Zrotation Xrotation Yrotation
              JOINT LeftHand
              {
                OFFSET 28.3288 0 0
                CHANNELS 3 Zrotation Xrotation Yrotation
                End Site
                {
                  OFFSET 0 0 0
                }
              }
            }
          }
        }
        JOINT RightShoulder
        {
          OFFSET -4.57 10.9462 -2.628
          CHANNELS 3 Zrotation Xrotation Yrotation
          JOINT RightArm
          {
            OFFSET -10.5928 -0.5248 -2.2321
            CHANNELS 3 Zrotation Xrotation Yrotation
            JOINT RightForeArm
            {
              OFFSET -27.8415 0 0
              CHANNELS 3 Zrotation Xrotation Yrotation
              JOINT RightHand
              {
                OFFSET -28.3288 0 0.0001
                CHANNELS 3 Zrotation Xrotation Yrotation
                End Site
                {
                  OFFSET 0 0 0
                }
              }
            }
          }
        }
      }
    }
  }
  JOINT LeftUpLeg
  {
    OFFSET 8.2078 -6.7517 -1.5996
    CHANNELS 3 Zrotation Xrotation Yrotation
    JOINT LeftLeg
    {
      OFFSET 0 -44.3705 0.2846
      CHANNELS 3 Zrotation Xrotation Yrotation
      JOINT LeftFoot
      {
        OFFSET 0 -44.4279 -2.9822
        CHANNELS 3 Zrotation Xrotation Yrotation
        JOINT LeftToeBase
        {
          OFFSET 0 -8.7287 10.7106
          CHANNELS 3 Zrotation Xrotation Yrotation
          End Site
          {
            OFFSET 0 -0.0007 9.2781
          }
        }
      }
    }
  }
  JOINT RightUpLeg
  {
    OFFSET -8.2078 -6.7517 -1.5996
    CHANNELS 3 Zrotation Xrotation Yrotation
    JOINT RightLeg
    {
      OFFSET 0 -44.3705 0.2862
      CHANNELS 3 Zrotation Xrotation Yrotation
      JOINT RightFoot
      {
        OFFSET 0 -44.4277 -2.9838
        CHANNELS 3 Zrotation Xrotation Yrotation
        JOINT RightToeBase
        {
          OFFSET 0 -8.7287 10.7106
          CHANNELS 3 Zrotation Xrotation Yrotation
          End Site
          {
            OFFSET 0 -0.0007 9.2781
          }
        }
      }
    }
  }
}
MOTION
Frames:	13
Frame Time:	0.0333333
-0.873549 89.769 1.62803 1.07435 -2.48298 -31.1689 -3.30424 12.9269 6.20105 0.0889561 0.122479 0.761165 0.0714935 0.120639 0.764935 -4.70423 5.70297 3.07871 -5.64021 9.82647 8.11941 -8.09218 1.12977 4.53399 -84.4236 -0.309498 45.9854 -3.95082 -12.8997 -107.234 10.4533 -5.49735 -30.6484 -2.72916 3.13879 13.9822 59.3125 16.0809 -19.2451 -3.45859 12.8342 105.244 -29.7114 -14.2476 -0.0330173 19.3497 -33.8136 17.9625 10.7892 48.1958 -19.8212 -15.7157 -12.3201 -17.2492 -0.000966255 -1.24596 -0.00654788 -24.9548 0.544343 -18.7771 -10.6127 41.8462 -0.528303 24.0393 -18.2112 -0.227625 0.407977 -9.2802 0.0637979 
-1.23993 90.9237 0.693024 1.12843 -2.07848 -30.583 -3.61258 13.2099 6.30249 0.0425798 0.192785 0.761167 0.026913 0.190817 0.764938 -4.75232 5.93058 3.04664 -5.53156 9.60445 7.89794 -8.23016 1.07678 4.72577 -84.5997 -0.462244 45.7268 -3.96909 -12.8942 -107.316 10.0551 -4.95824 -29.8088 -2.83037 3.14693 14.5471 59.6375 15.4987 -19.7479 -3.42539 12.843 105.095 -28.9761 -13.9861 -0.857745 19.3725 -32.5507 18.5986 10.1785 43.9116 -19.4651 -16.116 -9.70295 -17.4728 -0.00118467 -3.15459 -0.00655626 -24.6865 0.315221 -19.2365 -8.84296 41.0352 -0.636504 24.0317 -15.2151 -0.958573 4.02048 -10.2228 0.575587 
-1.80251 92.6604 -0.846093 1.15472 -1.28952 -29.6694 -3.49546 13.3309 6.23282 0.00716407 0.371815 0.75655 -0.00608111 0.36995 0.760802 -4.86729 6.3325 3.00675 -5.28625 9.04841 7.53385 -8.29836 1.06282 4.72709 -84.3601 -0.943161 44.7819 -4.148 -12.8386 -108.119 10.6178 -5.0196 -29.7717 -2.83065 3.43065 15.8207 59.7748 13.9142 -20.2067 -3.59666 12.7968 105.866 -28.8967 -14.2816 -1.86107 19.3612 -31.5924 19.2435 9.63817 38.1409 -18.6363 -16.0447 -3.11865 -17.1822 -0.00179762 -6.44107 -0.00658791 -23.9101 -0.27791 -19.5985 -6.62057 40.0281 -0.860076 23.7082 -11.5441 -1.85518 5.74975 -10.22 0.748397 
-2.48067 94.4996 -2.75104 1.12812 -0.264884 -28.4208 -3.05786 13.3295 5.9395 0.00576766 0.639577 0.724888 -0.00418133 0.637805 0.729341 -5.03771 6.83441 2.94649 -4.89502 8.16586 6.95719 -8.26026 1.12322 4.44405 -83.7848 -1.56519 43.1788 -4.4031 -12.7546 -109.271 12.0234 -5.46379 -30.3384 -2.81006 3.78497 17.3408 59.6757 11.7597 -20.6313 -3.94676 12.6948 107.453 -29.3804 -14.8705 -2.81516 19.2706 -30.9051 19.7604 8.94133 31.6128 -17.4315 -15.5609 5.81405 -16.3534 -1.7331e-006 -8.73 -0.000562994 -22.706 -1.08 -19.7348 -4.48722 39.2861 -1.44372 23.2326 -9.39757 -2.37482 4.60027 -8.95847 0.536997 
-3.18769 95.866 -4.78378 1.09731 0.751539 -26.8362 -2.51143 13.2421 5.47007 0.036895 0.949298 0.669585 0.0304868 0.947489 0.675015 -5.23403 7.30376 2.86921 -4.44695 7.17792 6.22213 -8.10621 1.26226 3.87803 -83.064 -2.07407 41.1454 -4.62654 -12.6765 -110.286 13.7848 -5.93635 -31.0247 -2.85595 3.95857 18.5388 59.42 9.67685 -20.9746 -4.37372 12.5561 109.406 -30.118 -15.3436 -3.48075 19.1851 -30.6052 20.0615 7.79404 25.9165 -16.5261 -15.2015 13.9961 -14.6418 0.649433 -10.5168 0.0674039 -21.3645 -1.897 -19.6308 -2.71052 38.8904 -1.81959 22.2364 -8.7288 -2.5547 3.37577 -7.56569 0.347353 
-3.87562 96.4443 -6.73336 1.13269 1.41869 -25.2711 -2.07377 13.1361 4.98469 0.0820912 1.21541 0.609141 0.0784292 1.21343 0.615428 -5.40739 7.61386 2.79555 -4.06556 6.43757 5.50645 -7.88126 1.4288 3.20173 -82.4355 -2.24374 39.238 -4.76751 -12.6249 -110.929 15.1556 -6.22232 -31.4711 -2.99359 3.83044 19.101 59.1821 8.2168 -21.2182 -4.74446 12.4227 111.121 -30.767 -15.5156 -3.72565 19.2316 -31.509 20.146 7.13838 24.7364 -16.0847 -15.5473 16.6101 -12.9057 1.00401 -8.74705 0.0743691 -20.328 -2.55306 -19.358 -1.48816 39.0952 -1.7693 20.8277 -9.81196 -2.36919 2.37472 -6.47525 0.219457 
-4.56355 96.2861 -8.54157 1.08751 1.68779 -23.9201 -1.77979 13.1009 4.59994 0.138459 1.37488 0.558383 0.136308 1.3726 0.56546 -5.51698 7.74148 2.73797 -3.76881 6.10197 4.93356 -7.65172 1.57269 2.59164 -82.0686 -2.00306 37.961 -4.83756 -12.5985 -111.25 15.7361 -6.33264 -31.7294 -3.1794 3.47464 19.0825 59.0609 7.5245 -21.4312 -4.98694 12.3286 112.252 -31.2175 -15.5651 -3.58486 19.3832 -33.1204 20.027 7.09069 27.6271 -16.3336 -15.4803 14.5834 -11.7058 1.43923 -6.43014 0.0711326 -19.4102 -2.78062 -19.0033 -0.813978 39.5103 -1.58099 19.4747 -12.0325 -1.9938 2.12244 -6.26796 0.193019 
-5.26865 95.413 -10.136 0.835167 1.56332 -22.8136 -1.57461 13.2197 4.3515 0.213201 1.39505 0.522713 0.211329 1.3924 0.531073 -5.52393 7.7169 2.69087 -3.51166 6.13912 4.53808 -7.4804 1.67055 2.17011 -82.0844 -1.34548 37.7033 -4.86608 -12.5877 -111.381 15.4799 -6.30445 -31.9929 -3.34612 3.03929 18.5985 59.0723 7.58875 -21.72 -5.07542 12.2929 112.667 -31.4736 -15.7469 -3.13497 19.7922 -34.7329 19.8067 7.42751 32.8135 -17.0305 -15.501 10.5761 -10.834 2.12341 -6.29856 0.105159 -18.4415 -2.373 -18.5947 -0.586887 39.8917 -1.52533 18.9489 -15.1689 -1.44051 2.82315 -6.87744 0.270118 
-5.99048 94.0422 -11.5304 0.31683 1.14664 -21.8564 -1.37342 13.6238 4.17159 0.308419 1.25075 0.494623 0.305772 1.24795 0.505136 -5.37093 7.55593 2.62386 -3.26978 6.36962 4.27782 -7.42239 1.71718 2.03372 -82.5964 -0.288023 38.7464 -4.86318 -12.5888 -111.368 14.6703 -6.1253 -32.4456 -3.41032 2.68336 17.6084 59.1706 8.44309 -22.1374 -4.99761 12.3243 112.302 -31.5276 -16.2596 -2.41913 20.4402 -35.9111 19.6129 7.92472 38.2342 -17.8601 -14.5994 6.00719 -10.1626 2.20432 -8.07973 0.151398 -17.28 -1.21042 -18.2147 -0.544059 39.8307 -1.63518 19.7975 -19.1632 -0.621089 1.46612 -8.94952 0.150284 
-6.64413 92.5159 -12.7668 -0.341935 0.54692 -20.925 -1.09753 14.3872 3.95382 0.378835 0.98135 0.464267 0.374888 0.979053 0.476665 -5.0751 7.26272 2.52289 -3.10069 6.59432 4.09916 -7.48465 1.71451 2.19557 -83.5196 1.01311 40.8797 -4.81771 -12.606 -111.159 13.7418 -5.83443 -33.0388 -3.35628 2.46433 16.1793 59.2641 9.92129 -22.618 -4.77936 12.4095 111.283 -31.3501 -16.9133 -1.52239 21.2568 -36.9593 19.6349 8.64908 43.1231 -18.7152 -12.614 0.759197 -9.68841 0.0115954 -7.07856 0.000616635 -16.0621 0.365534 -18.0115 -0.415688 39.688 -2.21242 21.0368 -24.8883 0.652714 -0.0026234 -8.13444 -0.000761681 
-7.0947 91.1212 -13.7961 -1.03703 -0.162233 -20.0303 -0.641826 15.4771 3.67482 0.375695 0.66043 0.431391 0.370463 0.65938 0.443999 -4.70301 6.85599 2.40362 -3.07044 6.73873 4.00738 -7.65467 1.64827 2.65567 -84.6811 2.38751 43.7397 -4.7074 -12.6471 -110.655 12.8295 -5.4951 -33.5853 -3.21389 2.38141 14.565 59.3083 11.7177 -23.0797 -4.46243 12.5253 109.815 -30.9195 -17.3143 -0.584814 22.2746 -38.2776 19.7057 9.67905 46.9479 -19.6801 -12.6962 -1.49475 -9.3554 1.11294e-006 -6.86273 0.0060381 -15.0171 1.90591 -18.1182 -0.118821 39.9672 -3.56402 21.3625 -32.0915 2.34434 2.45606e-005 -5.49432 0.00327514 
-7.28553 90.1714 -14.5025 -1.54106 -0.928518 -19.3983 -0.110553 16.6355 3.44945 0.277638 0.41708 0.412158 0.271553 0.417665 0.42221 -4.38269 6.44788 2.3067 -3.18162 6.8437 4.01665 -7.90161 1.49364 3.37745 -85.7795 3.61853 46.7161 -4.5167 -12.7154 -109.786 11.7882 -5.16266 -33.7924 -3.06036 2.40131 13.3259 59.33 13.2345 -23.4682 -4.13148 12.6367 108.296 -30.2941 -16.9663 0.122525 22.8132 -39.7666 19.4944 10.8075 49.5776 -20.703 -12.5908 -0.166125 -9.20763 0.00676671 -8.28988 0.0003662 -15.2015 2.02752 -18.3776 0.382711 42.2879 -3.35628 21.2699 -34.8624 2.91116 0.000309789 -3.94233 0.00580819 
-7.29563 89.8497 -14.6995 -1.8318 -1.54889 -19.423 0.347392 17.4348 3.51387 0.141469 0.348921 0.433442 0.134528 0.350626 0.43926 -4.22614 6.23062 2.26558 -3.33385 7.05517 4.0937 -8.1697 1.23881 4.26752 -86.521 4.54281 49.2019 -4.28596 -12.7939 -108.741 10.3571 -4.80775 -33.4956 -2.98617 2.43906 12.913 59.4923 13.9411 -23.7955 -3.88916 12.7123 107.191 -29.5992 -15.7828 0.382248 23.3623 -41.0611 19.4859 11.4517 51.4663 -21.2605 -12.4975 4.46715 -9.3114 1.02676 -12.5668 0.141264 -15.797 2.40145 -18.8424 0.728564 43.2491 -2.19479 20.7408 -35.517 2.84096 0.000421703 -3.57937 0.00972238 
